# xmcd
#
# Track frame offsets: 
#        150
#        15375
#        33750
#        51862
#        71737
#
# Disc length: 1215 seconds
#
# Revision: 0
# Processed by: cddbd v1.5.2PL0 Copyright (c) Steve Scherf et al.
# Submitted via: ExactAudioCopy v1.2
#
DISCID=3604bd05
DTITLE=Mark Wilson - Into the Realm
DYEAR=2013
DGENRE=Rock, Country
TTITLE0=Carry Me On
TTITLE1=Just Like You, Just Like Me
TTITLE2=Wasteland
TTITLE3=Boldness of a Lion
TTITLE4=Dreams of Nirvana Reprise
EXTD=
EXTT0=
EXTT1=
EXTT2=
EXTT3=
EXTT4=
PLAYORDER=
